<?xml version="1.0" standalone="no"?>
<!-- Generator: Paintmaps.com , Online SVG vector map maker -->
<svg xmlns="http://www.w3.org/2000/svg" version="1.1" width="600" height="566" style="background-color:false">
<path d="M 395.2654 57.3139 L 395.3066 58.0826 L 392.4649 58.1375 L 394.6889 56.6 L 395.2654 57.3139 Z" fill="#000000" fill-opacity="1" stroke="#000000" stroke-width="0" paint-order="fill" stroke-opacity="1" stroke-dasharray="" stroke-linecap="butt" stroke-linejoin="miter" stroke-miterlimit="10" transform="matrix(1.2000000476837158,0,0,1.2000000476837158,-85.00000762939453,-56.599998474121094)" clip-path="none" style="filter: url(#f1)"/>
<path d="M 503.1665 234.8426 L 501.1897 236.5449 L 496.4947 234.4034 L 497.6479 233.4149 L 503.4136 233.4149 L 503.1665 234.8426 Z M 512.3504 227.4845 L 513.5859 228.6926 L 513.2153 229.5711 L 508.3556 231.8225 L 504.9374 233.7993 L 504.4844 232.756 L 506.8318 229.7359 L 506.9142 227.9238 L 509.4264 228.5278 L 509.1381 226.3863 L 510.9502 223.6407 L 513.2153 224.2996 L 511.6091 226.8256 L 512.3504 227.4845 Z M 498.5951 207.332 L 498.7598 210.9562 L 497.1125 213.1526 L 495.218 214.141 L 493.8178 215.8433 L 494.2296 217.2161 L 493.859 221.005 L 490.8526 223.6956 L 491.6763 225.7823 L 488.6698 227.5943 L 487.0637 229.4064 L 484.881 233.0855 L 483.2336 234.6779 L 479.4035 236.1605 L 478.5799 238.6315 L 478.0857 241.6517 L 476.1912 243.0245 L 471.4963 243.7932 L 469.7666 244.7816 L 467.1308 249.3942 L 464.701 250.0531 L 462.5594 249.9982 L 460.9945 252.1947 L 454.4463 255.5443 L 453.2108 256.8621 L 452.593 258.839 L 449.7513 264.385 L 448.6394 265.044 L 446.8273 264.2203 L 446.6214 265.9225 L 444.6034 266.0324 L 440.0732 262.2435 L 436.7785 262.6279 L 434.5958 261.914 L 433.525 260.5412 L 435.7901 261.0354 L 435.8313 259.0586 L 433.6897 256.1483 L 435.0488 254.2813 L 439.4966 252.4143 L 443.5738 249.3942 L 445.8801 249.1745 L 447.3215 247.6919 L 449.7102 246.429 L 450.9457 242.9695 L 450.4103 241.9262 L 446.3331 239.8396 L 439.7437 238.961 L 438.9612 237.0391 L 439.0436 235.5565 L 440.6498 231.6578 L 446.3743 221.9385 L 450.2044 212.9879 L 451.5222 210.6816 L 454.1168 207.6066 L 456.0936 205.7396 L 459.0177 204.6962 L 464.7834 205.5748 L 467.2956 207.0574 L 468.6958 206.8927 L 474.2144 204.0922 L 476.0265 202.5547 L 476.6031 200.523 L 478.7446 198.4363 L 483.2336 199.6993 L 484.7986 198.9855 L 486.0753 196.5144 L 487.7638 198.2716 L 489.3288 203.4882 L 491.4292 203.6529 L 492.2116 202.6096 L 493.9825 204.0922 L 495.424 206.5083 L 498.5951 207.332 Z" fill="#000000" fill-opacity="1" stroke="#000000" stroke-width="0" paint-order="fill" stroke-opacity="1" stroke-dasharray="" stroke-linecap="butt" stroke-linejoin="miter" stroke-miterlimit="10" transform="matrix(1.2000000476837158,0,0,1.2000000476837158,-85.00000762939453,-56.599998474121094)" clip-path="none" style="filter: url(#f1)"/>
<path d="M 495.6711 281.5174 L 498.8834 284.867 L 501.8074 286.4594 L 502.4252 287.338 L 497.7302 291.7858 L 496.4124 291.9506 L 495.8358 293.9274 L 494.1061 296.3435 L 492.9529 296.5631 L 493.2 294.4216 L 492.2528 293.0488 L 489.6583 291.676 L 488.3404 293.5979 L 486.1988 292.8841 L 485.4987 288.6559 L 486.4459 286.8438 L 485.787 282.4509 L 487.6814 281.6821 L 491.841 282.5058 L 494.0649 282.6156 L 495.6711 281.5174 Z M 444.1092 333.1342 L 445.0152 330.4984 L 444.974 325.831 L 444.1916 324.8425 L 439.2907 323.7992 L 435.3371 319.7907 L 438.5494 319.9554 L 441.6382 319.0768 L 444.4798 319.2965 L 451.6458 317.3197 L 457.4939 312.3227 L 462.5183 310.5107 L 467.5838 301.9994 L 470.7138 297.9359 L 471.9493 297.0573 L 473.4319 297.3319 L 476.9737 296.7279 L 480.8038 295.5747 L 485.0045 293.4332 L 486.24 295.6296 L 486.1165 299.8578 L 483.8514 301.5601 L 482.9865 303.482 L 485.2516 307.3258 L 488.5051 307.1061 L 492.3352 304.6351 L 495.0121 303.6467 L 496.1653 301.5052 L 494.8062 298.8694 L 496.2888 297.6065 L 497.5243 298.1007 L 498.3892 297.1672 L 502.6723 299.2538 L 505.1845 302.823 L 505.6787 306.5021 L 504.3608 308.7535 L 505.5139 312.5424 L 505.1021 314.2995 L 506.5847 313.8053 L 508.6439 316.2214 L 515.0274 318.9121 L 514.3272 319.2965 L 509.2617 317.759 L 506.7906 317.5393 L 506.2141 319.4612 L 508.3968 321.7675 L 509.2617 323.6894 L 512.6387 323.1952 L 514.8214 323.6345 L 519.2281 325.172 L 521.4932 325.1171 L 522.0286 323.6345 L 519.5987 322.2617 L 518.0749 320.5595 L 522.7699 323.7992 L 526.0234 325.172 L 526.1469 327.9725 L 524.8291 333.9029 L 524.7879 338.2959 L 523.923 342.524 L 524.4584 348.9487 L 523.8818 355.4831 L 523.9642 358.8877 L 525.0762 361.2489 L 528.6179 364.6534 L 529.8946 366.7949 L 530.1417 369.4307 L 529.2769 371.4075 L 527.6295 373.0548 L 524.0466 375.5807 L 510.6207 382.4447 L 513.8742 376.02 L 517.5396 372.7254 L 520.7519 371.2977 L 522.6051 369.9249 L 523.2229 368.003 L 520.0518 367.8931 L 506.2141 356.801 L 506.4612 353.122 L 506.1729 347.7955 L 507.326 342.9633 L 506.9142 341.4258 L 502.7546 338.2409 L 501.8898 336.978 L 501.1485 334.0677 L 500.2836 333.1342 L 485.9517 326.5997 L 482.4511 326.1055 L 480.0625 324.3483 L 481.298 323.5247 L 482.0805 321.8224 L 481.4215 321.1635 L 477.4267 321.7126 L 474.7498 321.6577 L 465.8129 325.831 L 459.6354 328.9609 L 455.3523 328.6864 L 452.6754 331.6516 L 448.557 332.9694 L 444.1092 333.1342 Z" fill="#000000" fill-opacity="1" stroke="#000000" stroke-width="0" paint-order="fill" stroke-opacity="1" stroke-dasharray="" stroke-linecap="butt" stroke-linejoin="miter" stroke-miterlimit="10" transform="matrix(1.2000000476837158,0,0,1.2000000476837158,-85.00000762939453,-56.599998474121094)" clip-path="none" style="filter: url(#f1)"/>
<path d="M 331.1426 312.1031 L 330.4013 309.4124 L 323.4 296.673 L 322.494 291.8408 L 321.0526 288.9304 L 319.8582 282.0665 L 321.0114 275.8615 L 321.2173 271.3039 L 321.9586 269.6016 L 327.8479 263.2319 L 329.8247 262.2984 L 333.037 261.7493 L 335.1374 259.4979 L 337.1142 252.1947 L 338.1438 250.0531 L 340.1206 248.6254 L 344.5684 246.7035 L 346.6688 245.2209 L 351.9403 242.6401 L 352.558 244.6169 L 351.7755 248.6803 L 353.9995 251.1514 L 353.5464 251.7554 L 350.4165 252.4143 L 348.6044 254.6108 L 348.1926 256.3679 L 351.8991 258.839 L 353.2582 260.2117 L 354.9879 263.0671 L 361.3713 265.0989 L 363.5541 267.2953 L 364.666 270.2605 L 375.8268 269.6016 L 380.5217 270.3704 L 376.3622 277.8383 L 373.6029 281.2978 L 341.9327 306.7767 L 331.1426 312.1031 Z" fill="#000000" fill-opacity="1" stroke="#000000" stroke-width="0" paint-order="fill" stroke-opacity="1" stroke-dasharray="" stroke-linecap="butt" stroke-linejoin="miter" stroke-miterlimit="10" transform="matrix(1.2000000476837158,0,0,1.2000000476837158,-85.00000762939453,-56.599998474121094)" clip-path="none" style="filter: url(#f1)"/>
<path d="M 456.9585 81.8593 L 456.9585 83.0124 L 454.8581 85.154 L 455.2699 88.229 L 457.1644 91.3041 L 459.4295 93.6103 L 461.8181 94.8184 L 462.9713 96.4657 L 455.8877 98.9917 L 449.8337 102.4511 L 446.4155 104.0984 L 447.8157 106.4596 L 449.3807 107.9971 L 449.2571 109.2052 L 446.8273 111.7311 L 445.18 112.5548 L 443.6562 111.7311 L 441.5146 115.6848 L 439.5378 116.6732 L 437.0668 112.6097 L 434.8429 107.5029 L 430.2715 106.1302 L 424.5058 100.7488 L 426.4414 98.9917 L 430.6833 97.0698 L 433.2779 96.4108 L 436.9432 92.7318 L 440.6909 93.0612 L 443.2855 94.2693 L 445.7153 94.0496 L 449.5866 85.758 L 451.7693 83.0673 L 454.3227 82.7928 L 456.9585 81.8593 Z" fill="#000000" fill-opacity="1" stroke="#000000" stroke-width="0" paint-order="fill" stroke-opacity="1" stroke-dasharray="" stroke-linecap="butt" stroke-linejoin="miter" stroke-miterlimit="10" transform="matrix(1.2000000476837158,0,0,1.2000000476837158,-85.00000762939453,-56.599998474121094)" clip-path="none" style="filter: url(#f1)"/>
<path d="M 424.5058 100.7488 L 430.2715 106.1302 L 434.8429 107.5029 L 437.0668 112.6097 L 439.5378 116.6732 L 436.655 119.1442 L 434.0192 123.0978 L 433.4015 124.5804 L 430.4362 124.9648 L 425.5766 126.9965 L 423.1055 125.2393 L 420.9228 124.4157 L 416.5985 124.9099 L 414.9924 126.4474 L 413.0567 130.1265 L 412.0272 130.0716 L 407.8676 127.8202 L 403.1315 129.0832 L 401.9372 128.2595 L 397.9012 124.3608 L 399.3838 122.988 L 399.5073 120.6268 L 400.9488 118.5951 L 400.6193 116.7281 L 398.2307 111.0173 L 398.3542 106.1302 L 396.8716 105.0319 L 394.0711 104.5377 L 393.0415 103.6042 L 394.0711 100.4194 L 396.2127 98.4975 L 395.0183 96.0264 L 393.1651 93.83 L 393.2474 92.6219 L 394.6477 92.0179 L 392.2178 89.1076 L 395.2242 85.9776 L 396.7069 83.0124 L 399.2191 80.816 L 401.1959 79.8825 L 401.4018 82.2986 L 400.9488 85.4285 L 401.9784 87.1857 L 405.0259 87.1308 L 406.7968 88.6683 L 407.4558 90.6451 L 409.8032 95.8617 L 411.4506 97.4541 L 414.1275 98.5524 L 415.4866 99.9801 L 414.5394 103.6042 L 415.6513 106.6244 L 416.9692 107.2833 L 418.3283 106.6793 L 423.0232 101.6274 L 424.5058 100.7488 Z" fill="#000000" fill-opacity="1" stroke="#000000" stroke-width="0" paint-order="fill" stroke-opacity="1" stroke-dasharray="" stroke-linecap="butt" stroke-linejoin="miter" stroke-miterlimit="10" transform="matrix(1.2000000476837158,0,0,1.2000000476837158,-85.00000762939453,-56.599998474121094)" clip-path="none" style="filter: url(#f1)"/>
<path d="M 445.18 112.5548 L 446.8273 111.7311 L 449.2571 109.2052 L 452.0988 109.2601 L 453.3755 107.7775 L 456.9173 107.0637 L 458.2352 105.8556 L 458.9765 102.7806 L 459.8413 101.243 L 462.2712 105.3614 L 464.0009 106.4047 L 467.0485 106.4596 L 465.9365 110.7427 L 464.1244 114.5316 L 464.3715 117.0575 L 463.5478 122.5487 L 461.4887 122.988 L 459.4707 124.3059 L 458.0292 121.8897 L 451.9753 116.5084 L 448.557 115.1905 L 447.6098 115.52 L 446.2096 114.4218 L 445.18 112.5548 Z" fill="#000000" fill-opacity="1" stroke="#000000" stroke-width="0" paint-order="fill" stroke-opacity="1" stroke-dasharray="" stroke-linecap="butt" stroke-linejoin="miter" stroke-miterlimit="10" transform="matrix(1.2000000476837158,0,0,1.2000000476837158,-85.00000762939453,-56.599998474121094)" clip-path="none" style="filter: url(#f1)"/>
<path d="M 424.5058 100.7488 L 423.0232 101.6274 L 418.3283 106.6793 L 416.9692 107.2833 L 415.6513 106.6244 L 414.5394 103.6042 L 415.4866 99.9801 L 414.1275 98.5524 L 411.4506 97.4541 L 409.8032 95.8617 L 407.4558 90.6451 L 406.7968 88.6683 L 405.0259 87.1308 L 401.9784 87.1857 L 400.9488 85.4285 L 401.4018 82.2986 L 401.1959 79.8825 L 405.6849 77.9606 L 407.6205 75.7092 L 414.0863 75.6543 L 415.9396 74.8855 L 417.7929 73.0734 L 418.946 73.6775 L 421.4582 72.9087 L 424.2999 70.9868 L 426.1943 71.3712 L 429.8597 69.3395 L 433.6897 68.7354 L 435.09 69.614 L 439.2495 69.6689 L 439.4143 73.2382 L 436.0784 75.3248 L 435.0488 76.8623 L 436.8609 80.4865 L 439.4143 80.9258 L 441.4734 79.8276 L 442.5442 76.8074 L 439.4143 75.5445 L 437.3963 75.5445 L 440.4438 73.7324 L 445.2211 74.7757 L 448.6806 73.4578 L 449.9161 74.7757 L 453.3343 75.215 L 454.9405 76.6976 L 458.6058 77.9606 L 459.553 78.7842 L 456.5878 80.0472 L 456.2995 79.0039 L 453.3755 79.2784 L 452.5106 80.0472 L 454.1992 81.5847 L 456.629 81.3102 L 456.9585 81.8593 L 454.3227 82.7928 L 451.7693 83.0673 L 449.5866 85.758 L 445.7153 94.0496 L 443.2855 94.2693 L 440.6909 93.0612 L 436.9432 92.7318 L 433.2779 96.4108 L 430.6833 97.0698 L 426.4414 98.9917 L 424.5058 100.7488 Z" fill="#000000" fill-opacity="1" stroke="#000000" stroke-width="0" paint-order="fill" stroke-opacity="1" stroke-dasharray="" stroke-linecap="butt" stroke-linejoin="miter" stroke-miterlimit="10" transform="matrix(1.2000000476837158,0,0,1.2000000476837158,-85.00000762939453,-56.599998474121094)" clip-path="none" style="filter: url(#f1)"/>
<path d="M 365.4485 130.0166 L 365.6956 126.6121 L 365.2014 124.2509 L 362.5245 122.988 L 358.2414 122.4389 L 356.2646 121.6152 L 356.3881 119.4187 L 358.9827 117.1125 L 362.1538 115.9044 L 368.1666 112.2802 L 370.3905 108.9306 L 370.8436 106.7342 L 368.1254 104.5377 L 369.9787 102.7806 L 373.7264 102.6707 L 378.8332 100.9685 L 379.7804 99.5957 L 378.0919 96.9599 L 377.8036 93.9398 L 382.2102 92.1277 L 387.6053 91.9081 L 392.2178 89.1076 L 394.6477 92.0179 L 393.2474 92.6219 L 393.1651 93.83 L 395.0183 96.0264 L 396.2127 98.4975 L 394.0711 100.4194 L 393.0415 103.6042 L 394.0711 104.5377 L 396.8716 105.0319 L 398.3542 106.1302 L 398.2307 111.0173 L 400.6193 116.7281 L 400.9488 118.5951 L 399.5073 120.6268 L 399.3838 122.988 L 397.9012 124.3608 L 396.295 124.0313 L 393.2474 125.0746 L 388.9232 126.5023 L 377.1446 127.1063 L 374.7972 127.8751 L 370.3493 130.1814 L 365.4485 130.0166 Z" fill="#000000" fill-opacity="1" stroke="#000000" stroke-width="0" paint-order="fill" stroke-opacity="1" stroke-dasharray="" stroke-linecap="butt" stroke-linejoin="miter" stroke-miterlimit="10" transform="matrix(1.2000000476837158,0,0,1.2000000476837158,-85.00000762939453,-56.599998474121094)" clip-path="none" style="filter: url(#f1)"/>
<path d="M 463.5478 122.5487 L 464.3715 117.0575 L 464.1244 114.5316 L 465.9365 110.7427 L 467.0485 106.4596 L 468.0369 106.4596 L 472.0317 104.7574 L 472.9789 103.7141 L 474.2968 98.0582 L 476.1912 97.0149 L 478.4975 97.1247 L 482.4511 95.9166 L 484.8398 94.1045 L 487.1049 91.359 L 489.8642 88.9429 L 490.1113 86.9111 L 491.5939 85.758 L 494.0649 85.4285 L 495.9182 83.9459 L 497.8126 84.1656 L 498.2656 85.2638 L 497.7302 87.8446 L 499.7482 91.6335 L 500.1601 94.1045 L 502.2604 97.0698 L 501.3544 99.1015 L 499.3776 99.9252 L 496.7418 102.2864 L 493.3236 108.2168 L 489.9877 114.8062 L 487.4343 121.6152 L 486.1988 123.3174 L 482.1628 124.5255 L 477.4267 127.326 L 475.697 126.8867 L 474.0085 128.2046 L 472.9377 129.9068 L 472.0317 128.3693 L 470.0549 129.193 L 467.8721 128.534 L 464.8245 129.0832 L 463.9597 128.6988 L 463.5067 126.9416 L 463.5478 122.5487 Z" fill="#000000" fill-opacity="1" stroke="#000000" stroke-width="0" paint-order="fill" stroke-opacity="1" stroke-dasharray="" stroke-linecap="butt" stroke-linejoin="miter" stroke-miterlimit="10" transform="matrix(1.2000000476837158,0,0,1.2000000476837158,-85.00000762939453,-56.599998474121094)" clip-path="none" style="filter: url(#f1)"/>
<path d="M 449.2571 109.2052 L 449.3807 107.9971 L 447.8157 106.4596 L 446.4155 104.0984 L 449.8337 102.4511 L 455.8877 98.9917 L 462.9713 96.4657 L 463.4655 97.1796 L 461.6534 100.3645 L 460.5003 100.9685 L 459.7178 99.2113 L 457.2879 99.8702 L 455.7641 102.3962 L 458.9765 102.7806 L 458.2352 105.8556 L 456.9173 107.0637 L 453.3755 107.7775 L 452.0988 109.2601 L 449.2571 109.2052 Z" fill="#000000" fill-opacity="1" stroke="#000000" stroke-width="0" paint-order="fill" stroke-opacity="1" stroke-dasharray="" stroke-linecap="butt" stroke-linejoin="miter" stroke-miterlimit="10" transform="matrix(1.2000000476837158,0,0,1.2000000476837158,-85.00000762939453,-56.599998474121094)" clip-path="none" style="filter: url(#f1)"/>
<path d="M 363.76 175.4833 L 362.7304 171.5846 L 360.3417 167.5212 L 359.5592 162.689 L 359.8887 157.7469 L 361.1654 153.1893 L 361.3713 149.7848 L 362.4421 145.2271 L 363.4717 143.0307 L 362.7716 139.5163 L 363.0187 136.9904 L 365.4485 130.0166 L 370.3493 130.1814 L 374.7972 127.8751 L 377.1446 127.1063 L 388.9232 126.5023 L 393.2474 125.0746 L 395.5125 128.5889 L 396.1303 131.1149 L 395.389 133.5859 L 398.6425 139.3516 L 398.6837 143.3052 L 399.7133 144.5682 L 402.7608 146.1057 L 404.7788 149.4004 L 404.4494 152.146 L 403.5845 154.6719 L 401.6489 157.088 L 400.7017 160.0532 L 398.9308 161.5358 L 398.3954 162.9635 L 398.1071 168.1801 L 397.4482 170.5413 L 394.9771 170.3766 L 386.411 166.6975 L 382.3338 165.5444 L 380.8924 165.9287 L 378.9979 167.6859 L 378.1742 172.0239 L 377.4741 173.8909 L 373.5617 173.6713 L 371.3789 172.5181 L 369.4433 172.8476 L 366.7664 174.9891 L 363.76 175.4833 Z" fill="#000000" fill-opacity="1" stroke="#000000" stroke-width="0" paint-order="fill" stroke-opacity="1" stroke-dasharray="" stroke-linecap="butt" stroke-linejoin="miter" stroke-miterlimit="10" transform="matrix(1.2000000476837158,0,0,1.2000000476837158,-85.00000762939453,-56.599998474121094)" clip-path="none" style="filter: url(#f1)"/>
<path d="M 359.9299 230.0104 L 360.4653 228.5827 L 359.6004 222.3228 L 359.5181 220.0165 L 361.2478 214.3607 L 362.8539 207.6066 L 365.2426 204.9708 L 368.8256 199.0404 L 367.0958 197.7225 L 363.101 196.0751 L 361.9891 193.8787 L 361.7832 189.0465 L 362.3597 186.9049 L 364.1718 182.512 L 363.76 175.4833 L 366.7664 174.9891 L 369.4433 172.8476 L 371.3789 172.5181 L 373.5617 173.6713 L 377.4741 173.8909 L 378.1742 172.0239 L 378.9979 167.6859 L 380.8924 165.9287 L 382.3338 165.5444 L 386.411 166.6975 L 394.9771 170.3766 L 397.4482 170.5413 L 401.443 176.0874 L 403.6669 175.7579 L 406.4262 177.2954 L 407.3734 179.3271 L 409.2267 179.9861 L 412.4802 181.9629 L 413.6745 184.3241 L 413.345 186.3009 L 411.6565 188.3875 L 409.0208 190.2545 L 408.0323 192.6706 L 405.8084 195.0318 L 404.7377 198.656 L 405.6849 199.7542 L 409.4326 200.9623 L 410.5034 201.8958 L 410.1739 205.6847 L 410.9564 210.9012 L 409.0619 212.274 L 404.5729 214.0861 L 403.0079 213.8665 L 398.6837 220.0165 L 400.331 221.9385 L 399.878 222.3777 L 387.5229 229.5711 L 385.0931 230.7243 L 382.375 231.1636 L 376.2386 234.5132 L 375.5797 236.5449 L 374.4677 236.2154 L 370.267 233.6346 L 364.7484 231.8225 L 362.4009 230.285 L 359.9299 230.0104 Z" fill="#000000" fill-opacity="1" stroke="#000000" stroke-width="0" paint-order="fill" stroke-opacity="1" stroke-dasharray="" stroke-linecap="butt" stroke-linejoin="miter" stroke-miterlimit="10" transform="matrix(1.2000000476837158,0,0,1.2000000476837158,-85.00000762939453,-56.599998474121094)" clip-path="none" style="filter: url(#f1)"/>
<path d="M 448.6394 265.044 L 449.2571 271.249 L 450.6986 276.795 L 451.8929 279.1013 L 456.629 285.8554 L 457.8645 286.734 L 465.2776 293.9823 L 467.172 295.1354 L 471.9493 297.0573 L 470.7138 297.9359 L 467.5838 301.9994 L 462.5183 310.5107 L 457.4939 312.3227 L 451.6458 317.3197 L 444.4798 319.2965 L 441.6382 319.0768 L 438.5494 319.9554 L 435.3371 319.7907 L 432.5366 316.6058 L 429.7773 311.7736 L 425.7001 307.9847 L 425.6177 306.0628 L 427.4298 302.2739 L 426.7297 300.9011 L 424.2587 298.3203 L 422.3642 298.2105 L 420.3462 295.4649 L 416.5162 293.3234 L 413.8392 288.601 L 412.439 285.6358 L 410.9976 281.133 L 410.5857 278.3325 L 410.8328 273.2258 L 411.533 271.9079 L 415.4866 268.3386 L 411.7389 265.2087 L 410.9152 263.3417 L 415.0747 261.6944 L 421.7465 262.2984 L 425.6589 260.3765 L 427.8417 258.6193 L 430.8069 257.7956 L 432.2895 258.6742 L 433.525 260.5412 L 434.5958 261.914 L 436.7785 262.6279 L 440.0732 262.2435 L 444.6034 266.0324 L 446.6214 265.9225 L 446.8273 264.2203 L 448.6394 265.044 Z" fill="#000000" fill-opacity="1" stroke="#000000" stroke-width="0" paint-order="fill" stroke-opacity="1" stroke-dasharray="" stroke-linecap="butt" stroke-linejoin="miter" stroke-miterlimit="10" transform="matrix(1.2000000476837158,0,0,1.2000000476837158,-85.00000762939453,-56.599998474121094)" clip-path="none" style="filter: url(#f1)"/>
<path d="M 425.6589 260.3765 L 421.7465 262.2984 L 415.0747 261.6944 L 410.9152 263.3417 L 404.1611 264.4399 L 402.4726 264.1105 L 398.8896 265.5382 L 398.1483 268.5034 L 396.9951 269.6016 L 391.8472 268.723 L 389.2526 269.6016 L 380.5217 270.3704 L 375.8268 269.6016 L 364.666 270.2605 L 363.5541 267.2953 L 361.3713 265.0989 L 354.9879 263.0671 L 353.2582 260.2117 L 351.8991 258.839 L 348.1926 256.3679 L 348.6044 254.6108 L 350.4165 252.4143 L 353.5464 251.7554 L 353.9995 251.1514 L 351.7755 248.6803 L 352.558 244.6169 L 351.9403 242.6401 L 355.235 240.0043 L 356.5528 237.5882 L 358.7768 235.7761 L 357.4589 233.6895 L 358.2414 231.8225 L 359.9299 230.0104 L 362.4009 230.285 L 364.7484 231.8225 L 370.267 233.6346 L 374.4677 236.2154 L 375.5797 236.5449 L 376.2386 234.5132 L 382.375 231.1636 L 385.0931 230.7243 L 387.5229 229.5711 L 395.6773 232.8658 L 400.5369 232.8658 L 405.7673 233.8542 L 409.5561 235.7212 L 411.7389 234.9525 L 412.0683 235.7761 L 410.9152 238.9061 L 411.3682 241.8713 L 413.0156 243.7932 L 415.1983 245.4955 L 418.4106 246.6486 L 420.7169 249.3942 L 424.7941 251.8103 L 425.8237 253.0183 L 425.6589 260.3765 Z" fill="#000000" fill-opacity="1" stroke="#000000" stroke-width="0" paint-order="fill" stroke-opacity="1" stroke-dasharray="" stroke-linecap="butt" stroke-linejoin="miter" stroke-miterlimit="10" transform="matrix(1.2000000476837158,0,0,1.2000000476837158,-85.00000762939453,-56.599998474121094)" clip-path="none" style="filter: url(#f1)"/>
<path d="M 433.525 260.5412 L 432.2895 258.6742 L 430.8069 257.7956 L 427.8417 258.6193 L 425.6589 260.3765 L 425.8237 253.0183 L 424.7941 251.8103 L 420.7169 249.3942 L 418.4106 246.6486 L 415.1983 245.4955 L 413.0156 243.7932 L 411.3682 241.8713 L 410.9152 238.9061 L 412.0683 235.7761 L 411.7389 234.9525 L 409.5561 235.7212 L 405.7673 233.8542 L 400.5369 232.8658 L 395.6773 232.8658 L 387.5229 229.5711 L 399.878 222.3777 L 400.331 221.9385 L 398.6837 220.0165 L 403.0079 213.8665 L 404.5729 214.0861 L 409.0619 212.274 L 410.9564 210.9012 L 410.1739 205.6847 L 410.5034 201.8958 L 409.4326 200.9623 L 405.6849 199.7542 L 404.7377 198.656 L 405.8084 195.0318 L 408.0323 192.6706 L 409.0208 190.2545 L 411.6565 188.3875 L 413.345 186.3009 L 413.6745 184.3241 L 416.3103 183.5004 L 420.0168 183.8299 L 421.7877 186.4107 L 421.0464 191.3528 L 421.4994 192.5608 L 425.2883 196.0751 L 428.3771 196.5694 L 431.4658 199.864 L 432.8249 201.8958 L 435.1312 202.994 L 438.8377 203.6529 L 443.3267 205.0806 L 446.539 204.202 L 447.1156 204.861 L 448.9689 211.1209 L 450.2044 212.9879 L 446.3743 221.9385 L 440.6498 231.6578 L 439.0436 235.5565 L 438.9612 237.0391 L 439.7437 238.961 L 446.3331 239.8396 L 450.4103 241.9262 L 450.9457 242.9695 L 449.7102 246.429 L 447.3215 247.6919 L 445.8801 249.1745 L 443.5738 249.3942 L 439.4966 252.4143 L 435.0488 254.2813 L 433.6897 256.1483 L 435.8313 259.0586 L 435.7901 261.0354 L 433.525 260.5412 Z" fill="#000000" fill-opacity="1" stroke="#000000" stroke-width="0" paint-order="fill" stroke-opacity="1" stroke-dasharray="" stroke-linecap="butt" stroke-linejoin="miter" stroke-miterlimit="10" transform="matrix(1.2000000476837158,0,0,1.2000000476837158,-85.00000762939453,-56.599998474121094)" clip-path="none" style="filter: url(#f1)"/>
<path d="M 397.9012 124.3608 L 401.9372 128.2595 L 403.1315 129.0832 L 407.8676 127.8202 L 412.0272 130.0716 L 413.0567 130.1265 L 414.9924 126.4474 L 416.5985 124.9099 L 420.9228 124.4157 L 423.1055 125.2393 L 425.5766 126.9965 L 430.4362 124.9648 L 433.4015 124.5804 L 434.3075 127.93 L 432.7425 131.1698 L 430.8069 133.3113 L 425.7413 136.4413 L 425.906 137.265 L 428.7477 139.6811 L 433.4426 141.1637 L 434.5134 142.6463 L 434.8841 145.1173 L 433.4426 147.9178 L 422.6937 157.088 L 421.6641 158.4059 L 422.0348 162.1399 L 421.3347 165.2149 L 422.4878 166.8622 L 422.4054 168.3998 L 420.1815 169.0587 L 418.1223 170.4315 L 415.8984 170.5413 L 412.3978 169.3882 L 411.1623 169.7726 L 411.1623 170.9806 L 417.8752 179.2722 L 420.0168 183.8299 L 416.3103 183.5004 L 413.6745 184.3241 L 412.4802 181.9629 L 409.2267 179.9861 L 407.3734 179.3271 L 406.4262 177.2954 L 403.6669 175.7579 L 401.443 176.0874 L 397.4482 170.5413 L 398.1071 168.1801 L 398.3954 162.9635 L 398.9308 161.5358 L 400.7017 160.0532 L 401.6489 157.088 L 403.5845 154.6719 L 404.4494 152.146 L 404.7788 149.4004 L 402.7608 146.1057 L 399.7133 144.5682 L 398.6837 143.3052 L 398.6425 139.3516 L 395.389 133.5859 L 396.1303 131.1149 L 395.5125 128.5889 L 393.2474 125.0746 L 396.295 124.0313 L 397.9012 124.3608 Z" fill="#000000" fill-opacity="1" stroke="#000000" stroke-width="0" paint-order="fill" stroke-opacity="1" stroke-dasharray="" stroke-linecap="butt" stroke-linejoin="miter" stroke-miterlimit="10" transform="matrix(1.2000000476837158,0,0,1.2000000476837158,-85.00000762939453,-56.599998474121094)" clip-path="none" style="filter: url(#f1)"/>
<path d="M 497.895 178.2289 L 499.2129 180.9196 L 501.5191 181.5785 L 500.2013 182.8964 L 499.6659 186.1362 L 499.913 188.8268 L 499.2952 190.0898 L 499.6247 192.3412 L 502.6723 196.4595 L 505.6787 198.1618 L 505.6375 199.3698 L 503.2488 200.2484 L 502.3428 202.2252 L 500.8602 203.4882 L 499.5423 206.4534 L 498.5951 207.332 L 495.424 206.5083 L 493.9825 204.0922 L 492.2116 202.6096 L 491.4292 203.6529 L 489.3288 203.4882 L 487.7638 198.2716 L 486.0753 196.5144 L 484.7986 198.9855 L 483.2336 199.6993 L 478.7446 198.4363 L 476.6031 200.523 L 476.0265 202.5547 L 474.2144 204.0922 L 468.6958 206.8927 L 467.2956 207.0574 L 464.7834 205.5748 L 459.0177 204.6962 L 458.6882 200.7975 L 457.1232 198.1618 L 457.0408 193.9336 L 456.1348 191.5175 L 457.9057 186.4656 L 459.6766 183.7201 L 458.8941 180.6999 L 459.3883 179.437 L 462.5183 178.0093 L 462.3535 180.9196 L 465.154 183.171 L 466.719 182.7866 L 468.9429 183.2808 L 470.5079 186.3009 L 473.4319 187.6188 L 474.2968 187.509 L 475.3675 185.4772 L 476.6031 184.7634 L 477.3444 182.3473 L 483.1924 184.2143 L 486.6107 184.8732 L 489.37 184.7085 L 490.4407 182.6218 L 493.7766 179.8763 L 497.895 178.2289 Z" fill="#000000" fill-opacity="1" stroke="#000000" stroke-width="0" paint-order="fill" stroke-opacity="1" stroke-dasharray="" stroke-linecap="butt" stroke-linejoin="miter" stroke-miterlimit="10" transform="matrix(1.2000000476837158,0,0,1.2000000476837158,-85.00000762939453,-56.599998474121094)" clip-path="none" style="filter: url(#f1)"/>
<path d="M 479.0329 168.0154 L 481.5451 164.5011 L 484.1808 165.6542 L 487.1461 164.556 L 489.0405 165.764 L 488.258 167.8507 L 489.1229 169.9373 L 495.7122 172.573 L 497.6891 172.3534 L 499.913 174.9891 L 498.0185 175.7579 L 497.895 178.2289 L 493.7766 179.8763 L 490.4407 182.6218 L 489.37 184.7085 L 486.6107 184.8732 L 483.1924 184.2143 L 477.3444 182.3473 L 474.9145 181.6883 L 474.2144 183.3357 L 472.4435 183.5004 L 471.2904 182.4571 L 471.661 180.9196 L 474.0085 179.3271 L 473.3495 177.8994 L 474.4615 176.7463 L 477.3444 175.8677 L 478.5387 174.9891 L 479.28 171.365 L 479.0329 168.0154 Z" fill="#000000" fill-opacity="1" stroke="#000000" stroke-width="0" paint-order="fill" stroke-opacity="1" stroke-dasharray="" stroke-linecap="butt" stroke-linejoin="miter" stroke-miterlimit="10" transform="matrix(1.2000000476837158,0,0,1.2000000476837158,-85.00000762939453,-56.599998474121094)" clip-path="none" style="filter: url(#f1)"/>
<path d="M 462.5183 178.0093 L 459.3883 179.437 L 458.8941 180.6999 L 459.6766 183.7201 L 457.9057 186.4656 L 456.1348 191.5175 L 457.0408 193.9336 L 457.1232 198.1618 L 458.6882 200.7975 L 459.0177 204.6962 L 456.0936 205.7396 L 454.1168 207.6066 L 451.5222 210.6816 L 450.2044 212.9879 L 448.9689 211.1209 L 447.1156 204.861 L 446.539 204.202 L 443.3267 205.0806 L 438.8377 203.6529 L 435.1312 202.994 L 432.8249 201.8958 L 431.4658 199.864 L 428.3771 196.5694 L 425.2883 196.0751 L 421.4994 192.5608 L 421.0464 191.3528 L 421.7877 186.4107 L 420.0168 183.8299 L 417.8752 179.2722 L 411.1623 170.9806 L 411.1623 169.7726 L 412.3978 169.3882 L 415.8984 170.5413 L 418.1223 170.4315 L 420.1815 169.0587 L 422.4054 168.3998 L 422.4878 166.8622 L 421.3347 165.2149 L 422.0348 162.1399 L 421.6641 158.4059 L 422.6937 157.088 L 433.4426 147.9178 L 435.996 148.4669 L 442.1324 147.6981 L 444.1916 148.9062 L 446.1272 149.2357 L 449.0924 151.3223 L 450.0396 149.675 L 450.4515 146.9294 L 451.9753 147.149 L 454.1992 144.5682 L 457.1644 143.5249 L 455.5582 146.6548 L 455.5994 147.5334 L 458.3587 148.9611 L 459.5942 151.3772 L 458.6058 156.5389 L 457.6586 158.5706 L 455.3523 161.5907 L 455.1876 162.9635 L 460.9945 174.4949 L 462.5183 178.0093 Z" fill="#000000" fill-opacity="1" stroke="#000000" stroke-width="0" paint-order="fill" stroke-opacity="1" stroke-dasharray="" stroke-linecap="butt" stroke-linejoin="miter" stroke-miterlimit="10" transform="matrix(1.2000000476837158,0,0,1.2000000476837158,-85.00000762939453,-56.599998474121094)" clip-path="none" style="filter: url(#f1)"/>
<path d="M 472.9377 129.9068 L 472.4435 130.6756 L 470.5902 138.1985 L 470.4667 144.678 L 470.755 146.7097 L 472.773 152.8598 L 474.7086 155.3857 L 475.9853 156.3742 L 477.3855 160.4376 L 481.5451 164.5011 L 479.0329 168.0154 L 479.28 171.365 L 478.5387 174.9891 L 477.3444 175.8677 L 474.4615 176.7463 L 473.3495 177.8994 L 474.0085 179.3271 L 471.661 180.9196 L 471.2904 182.4571 L 472.4435 183.5004 L 474.2144 183.3357 L 474.9145 181.6883 L 477.3444 182.3473 L 476.6031 184.7634 L 475.3675 185.4772 L 474.2968 187.509 L 473.4319 187.6188 L 470.5079 186.3009 L 468.9429 183.2808 L 466.719 182.7866 L 465.154 183.171 L 462.3535 180.9196 L 462.5183 178.0093 L 460.9945 174.4949 L 455.1876 162.9635 L 455.3523 161.5907 L 457.6586 158.5706 L 458.6058 156.5389 L 459.5942 151.3772 L 458.3587 148.9611 L 455.5994 147.5334 L 455.5582 146.6548 L 457.1644 143.5249 L 459.3471 142.3717 L 460.1708 140.2302 L 460.1296 138.0886 L 464.248 136.8806 L 463.7538 134.7939 L 464.7422 133.6957 L 464.8245 129.0832 L 467.8721 128.534 L 470.0549 129.193 L 472.0317 128.3693 L 472.9377 129.9068 Z" fill="#000000" fill-opacity="1" stroke="#000000" stroke-width="0" paint-order="fill" stroke-opacity="1" stroke-dasharray="" stroke-linecap="butt" stroke-linejoin="miter" stroke-miterlimit="10" transform="matrix(1.2000000476837158,0,0,1.2000000476837158,-85.00000762939453,-56.599998474121094)" clip-path="none" style="filter: url(#f1)"/>
<path d="M 445.18 112.5548 L 446.2096 114.4218 L 447.6098 115.52 L 448.557 115.1905 L 451.9753 116.5084 L 458.0292 121.8897 L 459.4707 124.3059 L 461.4887 122.988 L 463.5478 122.5487 L 463.5067 126.9416 L 463.9597 128.6988 L 464.8245 129.0832 L 464.7422 133.6957 L 463.7538 134.7939 L 464.248 136.8806 L 460.1296 138.0886 L 460.1708 140.2302 L 459.3471 142.3717 L 457.1644 143.5249 L 454.1992 144.5682 L 451.9753 147.149 L 450.4515 146.9294 L 450.0396 149.675 L 449.0924 151.3223 L 446.1272 149.2357 L 444.1916 148.9062 L 442.1324 147.6981 L 435.996 148.4669 L 433.4426 147.9178 L 434.8841 145.1173 L 434.5134 142.6463 L 433.4426 141.1637 L 428.7477 139.6811 L 425.906 137.265 L 425.7413 136.4413 L 430.8069 133.3113 L 432.7425 131.1698 L 434.3075 127.93 L 433.4015 124.5804 L 434.0192 123.0978 L 436.655 119.1442 L 439.5378 116.6732 L 441.5146 115.6848 L 443.6562 111.7311 L 445.18 112.5548 Z" fill="#000000" fill-opacity="1" stroke="#000000" stroke-width="0" paint-order="fill" stroke-opacity="1" stroke-dasharray="" stroke-linecap="butt" stroke-linejoin="miter" stroke-miterlimit="10" transform="matrix(1.2000000476837158,0,0,1.2000000476837158,-85.00000762939453,-56.599998474121094)" clip-path="none" style="filter: url(#f1)"/>
<path d="M 362.7716 367.1793 L 362.1126 365.0377 L 361.0419 349.9371 L 360.3417 347.9603 L 350.3753 331.9261 L 349.2222 331.1574 L 347.0806 331.3221 L 345.0214 330.4435 L 339.3793 326.2702 L 333.1606 324.6778 L 331.8427 323.2501 L 331.1014 320.3398 L 331.1426 312.1031 L 341.9327 306.7767 L 373.6029 281.2978 L 376.3622 277.8383 L 380.5217 270.3704 L 389.2526 269.6016 L 391.8472 268.723 L 396.9951 269.6016 L 398.1483 268.5034 L 398.8896 265.5382 L 402.4726 264.1105 L 404.1611 264.4399 L 410.9152 263.3417 L 411.7389 265.2087 L 415.4866 268.3386 L 411.533 271.9079 L 410.8328 273.2258 L 410.5857 278.3325 L 410.9976 281.133 L 412.439 285.6358 L 413.8392 288.601 L 416.5162 293.3234 L 420.3462 295.4649 L 422.3642 298.2105 L 424.2587 298.3203 L 426.7297 300.9011 L 427.4298 302.2739 L 425.6177 306.0628 L 425.7001 307.9847 L 429.7773 311.7736 L 432.5366 316.6058 L 435.3371 319.7907 L 439.2907 323.7992 L 444.1916 324.8425 L 444.974 325.831 L 445.0152 330.4984 L 444.1092 333.1342 L 443.9033 334.6168 L 446.7038 337.1427 L 448.1864 339.2843 L 446.086 340.8767 L 446.3743 344.0067 L 447.1568 346.4777 L 445.0152 349.5527 L 444.9329 354.1104 L 447.0332 357.7894 L 446.992 358.8877 L 444.3975 357.8443 L 438.7965 353.3965 L 436.0372 350.4862 L 433.6486 349.9371 L 429.4066 350.8157 L 426.2355 353.3416 L 424.3822 354.2751 L 363.76 366.9047 L 362.7716 367.1793 Z" fill="#000000" fill-opacity="1" stroke="#000000" stroke-width="0" paint-order="fill" stroke-opacity="1" stroke-dasharray="" stroke-linecap="butt" stroke-linejoin="miter" stroke-miterlimit="10" transform="matrix(1.2000000476837158,0,0,1.2000000476837158,-85.00000762939453,-56.599998474121094)" clip-path="none" style="filter: url(#f1)"/>
<path d="M 510.6207 382.4447 L 494.6827 390.5716 L 493.2824 392.1091 L 491.3056 397.0511 L 489.6171 398.8083 L 485.0045 401.8284 L 482.1217 400.84 L 480.9685 402.103 L 480.5979 407.0999 L 479.9389 409.1317 L 477.7974 411.2732 L 476.3148 414.3482 L 474.7086 415.8309 L 471.8669 417.0389 L 466.0189 417.0389 L 463.3419 419.2903 L 459.8825 425.6051 L 456.5878 429.394 L 455.7641 430.8766 L 455.3523 435.9834 L 459.3883 446.5264 L 461.0768 453.0059 L 462.7654 456.5203 L 462.8477 462.2311 L 464.2068 466.5691 L 463.4243 471.1816 L 460.212 478.0456 L 455.4759 483.6465 L 449.9984 492.8167 L 443.4503 501.4928 L 442.1324 502.2615 L 436.6961 503.0303 L 424.8764 509.4 L 399.6721 395.4038 L 398.3542 393.3721 L 370.5141 372.8901 L 364.1718 368.7168 L 362.7716 367.1793 L 363.76 366.9047 L 424.3822 354.2751 L 426.2355 353.3416 L 429.4066 350.8157 L 433.6486 349.9371 L 436.0372 350.4862 L 438.7965 353.3965 L 444.3975 357.8443 L 446.992 358.8877 L 447.0332 357.7894 L 444.9329 354.1104 L 445.0152 349.5527 L 447.1568 346.4777 L 446.3743 344.0067 L 446.086 340.8767 L 448.1864 339.2843 L 446.7038 337.1427 L 443.9033 334.6168 L 444.1092 333.1342 L 448.557 332.9694 L 452.6754 331.6516 L 455.3523 328.6864 L 459.6354 328.9609 L 465.8129 325.831 L 474.7498 321.6577 L 477.4267 321.7126 L 481.4215 321.1635 L 482.0805 321.8224 L 481.298 323.5247 L 480.0625 324.3483 L 482.4511 326.1055 L 485.9517 326.5997 L 500.2836 333.1342 L 501.1485 334.0677 L 501.8898 336.978 L 502.7546 338.2409 L 506.9142 341.4258 L 507.326 342.9633 L 506.1729 347.7955 L 506.4612 353.122 L 506.2141 356.801 L 520.0518 367.8931 L 523.2229 368.003 L 522.6051 369.9249 L 520.7519 371.2977 L 517.5396 372.7254 L 513.8742 376.02 L 510.6207 382.4447 Z" fill="#000000" fill-opacity="1" stroke="#000000" stroke-width="0" paint-order="fill" stroke-opacity="1" stroke-dasharray="" stroke-linecap="butt" stroke-linejoin="miter" stroke-miterlimit="10" transform="matrix(1.2000000476837158,0,0,1.2000000476837158,-85.00000762939453,-56.599998474121094)" clip-path="none" style="filter: url(#f1)"/>
<path d="M 395.2654 57.3139 L 395.3066 58.0826 L 392.4649 58.1375 L 394.6889 56.6 L 395.2654 57.3139 Z" fill="#ffffff" fill-opacity="1" stroke="#000000" stroke-width="0.41666665010982157" paint-order="fill" stroke-opacity="1" stroke-dasharray="" stroke-linecap="butt" stroke-linejoin="miter" stroke-miterlimit="10" transform="matrix(1.2000000476837158,0,0,1.2000000476837158,-85.00000762939453,-56.599998474121094)" clip-path="none"/>
<path d="M 503.1665 234.8426 L 501.1897 236.5449 L 496.4947 234.4034 L 497.6479 233.4149 L 503.4136 233.4149 L 503.1665 234.8426 Z M 512.3504 227.4845 L 513.5859 228.6926 L 513.2153 229.5711 L 508.3556 231.8225 L 504.9374 233.7993 L 504.4844 232.756 L 506.8318 229.7359 L 506.9142 227.9238 L 509.4264 228.5278 L 509.1381 226.3863 L 510.9502 223.6407 L 513.2153 224.2996 L 511.6091 226.8256 L 512.3504 227.4845 Z M 498.5951 207.332 L 498.7598 210.9562 L 497.1125 213.1526 L 495.218 214.141 L 493.8178 215.8433 L 494.2296 217.2161 L 493.859 221.005 L 490.8526 223.6956 L 491.6763 225.7823 L 488.6698 227.5943 L 487.0637 229.4064 L 484.881 233.0855 L 483.2336 234.6779 L 479.4035 236.1605 L 478.5799 238.6315 L 478.0857 241.6517 L 476.1912 243.0245 L 471.4963 243.7932 L 469.7666 244.7816 L 467.1308 249.3942 L 464.701 250.0531 L 462.5594 249.9982 L 460.9945 252.1947 L 454.4463 255.5443 L 453.2108 256.8621 L 452.593 258.839 L 449.7513 264.385 L 448.6394 265.044 L 446.8273 264.2203 L 446.6214 265.9225 L 444.6034 266.0324 L 440.0732 262.2435 L 436.7785 262.6279 L 434.5958 261.914 L 433.525 260.5412 L 435.7901 261.0354 L 435.8313 259.0586 L 433.6897 256.1483 L 435.0488 254.2813 L 439.4966 252.4143 L 443.5738 249.3942 L 445.8801 249.1745 L 447.3215 247.6919 L 449.7102 246.429 L 450.9457 242.9695 L 450.4103 241.9262 L 446.3331 239.8396 L 439.7437 238.961 L 438.9612 237.0391 L 439.0436 235.5565 L 440.6498 231.6578 L 446.3743 221.9385 L 450.2044 212.9879 L 451.5222 210.6816 L 454.1168 207.6066 L 456.0936 205.7396 L 459.0177 204.6962 L 464.7834 205.5748 L 467.2956 207.0574 L 468.6958 206.8927 L 474.2144 204.0922 L 476.0265 202.5547 L 476.6031 200.523 L 478.7446 198.4363 L 483.2336 199.6993 L 484.7986 198.9855 L 486.0753 196.5144 L 487.7638 198.2716 L 489.3288 203.4882 L 491.4292 203.6529 L 492.2116 202.6096 L 493.9825 204.0922 L 495.424 206.5083 L 498.5951 207.332 Z" fill="red" fill-opacity="1" stroke="#000000" stroke-width="0.41666665010982157" paint-order="fill" stroke-opacity="1" stroke-dasharray="" stroke-linecap="butt" stroke-linejoin="miter" stroke-miterlimit="10" transform="matrix(1.2000000476837158,0,0,1.2000000476837158,-85.00000762939453,-56.599998474121094)" clip-path="none"/>
<path d="M 495.6711 281.5174 L 498.8834 284.867 L 501.8074 286.4594 L 502.4252 287.338 L 497.7302 291.7858 L 496.4124 291.9506 L 495.8358 293.9274 L 494.1061 296.3435 L 492.9529 296.5631 L 493.2 294.4216 L 492.2528 293.0488 L 489.6583 291.676 L 488.3404 293.5979 L 486.1988 292.8841 L 485.4987 288.6559 L 486.4459 286.8438 L 485.787 282.4509 L 487.6814 281.6821 L 491.841 282.5058 L 494.0649 282.6156 L 495.6711 281.5174 Z M 444.1092 333.1342 L 445.0152 330.4984 L 444.974 325.831 L 444.1916 324.8425 L 439.2907 323.7992 L 435.3371 319.7907 L 438.5494 319.9554 L 441.6382 319.0768 L 444.4798 319.2965 L 451.6458 317.3197 L 457.4939 312.3227 L 462.5183 310.5107 L 467.5838 301.9994 L 470.7138 297.9359 L 471.9493 297.0573 L 473.4319 297.3319 L 476.9737 296.7279 L 480.8038 295.5747 L 485.0045 293.4332 L 486.24 295.6296 L 486.1165 299.8578 L 483.8514 301.5601 L 482.9865 303.482 L 485.2516 307.3258 L 488.5051 307.1061 L 492.3352 304.6351 L 495.0121 303.6467 L 496.1653 301.5052 L 494.8062 298.8694 L 496.2888 297.6065 L 497.5243 298.1007 L 498.3892 297.1672 L 502.6723 299.2538 L 505.1845 302.823 L 505.6787 306.5021 L 504.3608 308.7535 L 505.5139 312.5424 L 505.1021 314.2995 L 506.5847 313.8053 L 508.6439 316.2214 L 515.0274 318.9121 L 514.3272 319.2965 L 509.2617 317.759 L 506.7906 317.5393 L 506.2141 319.4612 L 508.3968 321.7675 L 509.2617 323.6894 L 512.6387 323.1952 L 514.8214 323.6345 L 519.2281 325.172 L 521.4932 325.1171 L 522.0286 323.6345 L 519.5987 322.2617 L 518.0749 320.5595 L 522.7699 323.7992 L 526.0234 325.172 L 526.1469 327.9725 L 524.8291 333.9029 L 524.7879 338.2959 L 523.923 342.524 L 524.4584 348.9487 L 523.8818 355.4831 L 523.9642 358.8877 L 525.0762 361.2489 L 528.6179 364.6534 L 529.8946 366.7949 L 530.1417 369.4307 L 529.2769 371.4075 L 527.6295 373.0548 L 524.0466 375.5807 L 510.6207 382.4447 L 513.8742 376.02 L 517.5396 372.7254 L 520.7519 371.2977 L 522.6051 369.9249 L 523.2229 368.003 L 520.0518 367.8931 L 506.2141 356.801 L 506.4612 353.122 L 506.1729 347.7955 L 507.326 342.9633 L 506.9142 341.4258 L 502.7546 338.2409 L 501.8898 336.978 L 501.1485 334.0677 L 500.2836 333.1342 L 485.9517 326.5997 L 482.4511 326.1055 L 480.0625 324.3483 L 481.298 323.5247 L 482.0805 321.8224 L 481.4215 321.1635 L 477.4267 321.7126 L 474.7498 321.6577 L 465.8129 325.831 L 459.6354 328.9609 L 455.3523 328.6864 L 452.6754 331.6516 L 448.557 332.9694 L 444.1092 333.1342 Z" fill="yellow" fill-opacity="1" stroke="#000000" stroke-width="0.41666665010982157" paint-order="fill" stroke-opacity="1" stroke-dasharray="" stroke-linecap="butt" stroke-linejoin="miter" stroke-miterlimit="10" transform="matrix(1.2000000476837158,0,0,1.2000000476837158,-85.00000762939453,-56.599998474121094)" clip-path="none"/>
<path d="M 331.1426 312.1031 L 330.4013 309.4124 L 323.4 296.673 L 322.494 291.8408 L 321.0526 288.9304 L 319.8582 282.0665 L 321.0114 275.8615 L 321.2173 271.3039 L 321.9586 269.6016 L 327.8479 263.2319 L 329.8247 262.2984 L 333.037 261.7493 L 335.1374 259.4979 L 337.1142 252.1947 L 338.1438 250.0531 L 340.1206 248.6254 L 344.5684 246.7035 L 346.6688 245.2209 L 351.9403 242.6401 L 352.558 244.6169 L 351.7755 248.6803 L 353.9995 251.1514 L 353.5464 251.7554 L 350.4165 252.4143 L 348.6044 254.6108 L 348.1926 256.3679 L 351.8991 258.839 L 353.2582 260.2117 L 354.9879 263.0671 L 361.3713 265.0989 L 363.5541 267.2953 L 364.666 270.2605 L 375.8268 269.6016 L 380.5217 270.3704 L 376.3622 277.8383 L 373.6029 281.2978 L 341.9327 306.7767 L 331.1426 312.1031 Z" fill="red" fill-opacity="1" stroke="#000000" stroke-width="0.41666665010982157" paint-order="fill" stroke-opacity="1" stroke-dasharray="" stroke-linecap="butt" stroke-linejoin="miter" stroke-miterlimit="10" transform="matrix(1.2000000476837158,0,0,1.2000000476837158,-85.00000762939453,-56.599998474121094)" clip-path="none"/>
<path d="M 456.9585 81.8593 L 456.9585 83.0124 L 454.8581 85.154 L 455.2699 88.229 L 457.1644 91.3041 L 459.4295 93.6103 L 461.8181 94.8184 L 462.9713 96.4657 L 455.8877 98.9917 L 449.8337 102.4511 L 446.4155 104.0984 L 447.8157 106.4596 L 449.3807 107.9971 L 449.2571 109.2052 L 446.8273 111.7311 L 445.18 112.5548 L 443.6562 111.7311 L 441.5146 115.6848 L 439.5378 116.6732 L 437.0668 112.6097 L 434.8429 107.5029 L 430.2715 106.1302 L 424.5058 100.7488 L 426.4414 98.9917 L 430.6833 97.0698 L 433.2779 96.4108 L 436.9432 92.7318 L 440.6909 93.0612 L 443.2855 94.2693 L 445.7153 94.0496 L 449.5866 85.758 L 451.7693 83.0673 L 454.3227 82.7928 L 456.9585 81.8593 Z" fill="red" fill-opacity="1" stroke="#000000" stroke-width="0.41666665010982157" paint-order="fill" stroke-opacity="1" stroke-dasharray="" stroke-linecap="butt" stroke-linejoin="miter" stroke-miterlimit="10" transform="matrix(1.2000000476837158,0,0,1.2000000476837158,-85.00000762939453,-56.599998474121094)" clip-path="none"/>
<path d="M 424.5058 100.7488 L 430.2715 106.1302 L 434.8429 107.5029 L 437.0668 112.6097 L 439.5378 116.6732 L 436.655 119.1442 L 434.0192 123.0978 L 433.4015 124.5804 L 430.4362 124.9648 L 425.5766 126.9965 L 423.1055 125.2393 L 420.9228 124.4157 L 416.5985 124.9099 L 414.9924 126.4474 L 413.0567 130.1265 L 412.0272 130.0716 L 407.8676 127.8202 L 403.1315 129.0832 L 401.9372 128.2595 L 397.9012 124.3608 L 399.3838 122.988 L 399.5073 120.6268 L 400.9488 118.5951 L 400.6193 116.7281 L 398.2307 111.0173 L 398.3542 106.1302 L 396.8716 105.0319 L 394.0711 104.5377 L 393.0415 103.6042 L 394.0711 100.4194 L 396.2127 98.4975 L 395.0183 96.0264 L 393.1651 93.83 L 393.2474 92.6219 L 394.6477 92.0179 L 392.2178 89.1076 L 395.2242 85.9776 L 396.7069 83.0124 L 399.2191 80.816 L 401.1959 79.8825 L 401.4018 82.2986 L 400.9488 85.4285 L 401.9784 87.1857 L 405.0259 87.1308 L 406.7968 88.6683 L 407.4558 90.6451 L 409.8032 95.8617 L 411.4506 97.4541 L 414.1275 98.5524 L 415.4866 99.9801 L 414.5394 103.6042 L 415.6513 106.6244 L 416.9692 107.2833 L 418.3283 106.6793 L 423.0232 101.6274 L 424.5058 100.7488 Z" fill="#f0f" fill-opacity="1" stroke="#000000" stroke-width="0.41666665010982157" paint-order="fill" stroke-opacity="1" stroke-dasharray="" stroke-linecap="butt" stroke-linejoin="miter" stroke-miterlimit="10" transform="matrix(1.2000000476837158,0,0,1.2000000476837158,-85.00000762939453,-56.599998474121094)" clip-path="none"/>
<path d="M 445.18 112.5548 L 446.8273 111.7311 L 449.2571 109.2052 L 452.0988 109.2601 L 453.3755 107.7775 L 456.9173 107.0637 L 458.2352 105.8556 L 458.9765 102.7806 L 459.8413 101.243 L 462.2712 105.3614 L 464.0009 106.4047 L 467.0485 106.4596 L 465.9365 110.7427 L 464.1244 114.5316 L 464.3715 117.0575 L 463.5478 122.5487 L 461.4887 122.988 L 459.4707 124.3059 L 458.0292 121.8897 L 451.9753 116.5084 L 448.557 115.1905 L 447.6098 115.52 L 446.2096 114.4218 L 445.18 112.5548 Z" fill="pink" fill-opacity="1" stroke="#000000" stroke-width="0.41666665010982157" paint-order="fill" stroke-opacity="1" stroke-dasharray="" stroke-linecap="butt" stroke-linejoin="miter" stroke-miterlimit="10" transform="matrix(1.2000000476837158,0,0,1.2000000476837158,-85.00000762939453,-56.599998474121094)" clip-path="none"/>
<path d="M 424.5058 100.7488 L 423.0232 101.6274 L 418.3283 106.6793 L 416.9692 107.2833 L 415.6513 106.6244 L 414.5394 103.6042 L 415.4866 99.9801 L 414.1275 98.5524 L 411.4506 97.4541 L 409.8032 95.8617 L 407.4558 90.6451 L 406.7968 88.6683 L 405.0259 87.1308 L 401.9784 87.1857 L 400.9488 85.4285 L 401.4018 82.2986 L 401.1959 79.8825 L 405.6849 77.9606 L 407.6205 75.7092 L 414.0863 75.6543 L 415.9396 74.8855 L 417.7929 73.0734 L 418.946 73.6775 L 421.4582 72.9087 L 424.2999 70.9868 L 426.1943 71.3712 L 429.8597 69.3395 L 433.6897 68.7354 L 435.09 69.614 L 439.2495 69.6689 L 439.4143 73.2382 L 436.0784 75.3248 L 435.0488 76.8623 L 436.8609 80.4865 L 439.4143 80.9258 L 441.4734 79.8276 L 442.5442 76.8074 L 439.4143 75.5445 L 437.3963 75.5445 L 440.4438 73.7324 L 445.2211 74.7757 L 448.6806 73.4578 L 449.9161 74.7757 L 453.3343 75.215 L 454.9405 76.6976 L 458.6058 77.9606 L 459.553 78.7842 L 456.5878 80.0472 L 456.2995 79.0039 L 453.3755 79.2784 L 452.5106 80.0472 L 454.1992 81.5847 L 456.629 81.3102 L 456.9585 81.8593 L 454.3227 82.7928 L 451.7693 83.0673 L 449.5866 85.758 L 445.7153 94.0496 L 443.2855 94.2693 L 440.6909 93.0612 L 436.9432 92.7318 L 433.2779 96.4108 L 430.6833 97.0698 L 426.4414 98.9917 L 424.5058 100.7488 Z" fill="brown" fill-opacity="1" stroke="#000000" stroke-width="0.41666665010982157" paint-order="fill" stroke-opacity="1" stroke-dasharray="" stroke-linecap="butt" stroke-linejoin="miter" stroke-miterlimit="10" transform="matrix(1.2000000476837158,0,0,1.2000000476837158,-85.00000762939453,-56.599998474121094)" clip-path="none"/>
<path d="M 365.4485 130.0166 L 365.6956 126.6121 L 365.2014 124.2509 L 362.5245 122.988 L 358.2414 122.4389 L 356.2646 121.6152 L 356.3881 119.4187 L 358.9827 117.1125 L 362.1538 115.9044 L 368.1666 112.2802 L 370.3905 108.9306 L 370.8436 106.7342 L 368.1254 104.5377 L 369.9787 102.7806 L 373.7264 102.6707 L 378.8332 100.9685 L 379.7804 99.5957 L 378.0919 96.9599 L 377.8036 93.9398 L 382.2102 92.1277 L 387.6053 91.9081 L 392.2178 89.1076 L 394.6477 92.0179 L 393.2474 92.6219 L 393.1651 93.83 L 395.0183 96.0264 L 396.2127 98.4975 L 394.0711 100.4194 L 393.0415 103.6042 L 394.0711 104.5377 L 396.8716 105.0319 L 398.3542 106.1302 L 398.2307 111.0173 L 400.6193 116.7281 L 400.9488 118.5951 L 399.5073 120.6268 L 399.3838 122.988 L 397.9012 124.3608 L 396.295 124.0313 L 393.2474 125.0746 L 388.9232 126.5023 L 377.1446 127.1063 L 374.7972 127.8751 L 370.3493 130.1814 L 365.4485 130.0166 Z" fill="orange" fill-opacity="1" stroke="#000000" stroke-width="0.41666665010982157" paint-order="fill" stroke-opacity="1" stroke-dasharray="" stroke-linecap="butt" stroke-linejoin="miter" stroke-miterlimit="10" transform="matrix(1.2000000476837158,0,0,1.2000000476837158,-85.00000762939453,-56.599998474121094)" clip-path="none"/>
<path d="M 463.5478 122.5487 L 464.3715 117.0575 L 464.1244 114.5316 L 465.9365 110.7427 L 467.0485 106.4596 L 468.0369 106.4596 L 472.0317 104.7574 L 472.9789 103.7141 L 474.2968 98.0582 L 476.1912 97.0149 L 478.4975 97.1247 L 482.4511 95.9166 L 484.8398 94.1045 L 487.1049 91.359 L 489.8642 88.9429 L 490.1113 86.9111 L 491.5939 85.758 L 494.0649 85.4285 L 495.9182 83.9459 L 497.8126 84.1656 L 498.2656 85.2638 L 497.7302 87.8446 L 499.7482 91.6335 L 500.1601 94.1045 L 502.2604 97.0698 L 501.3544 99.1015 L 499.3776 99.9252 L 496.7418 102.2864 L 493.3236 108.2168 L 489.9877 114.8062 L 487.4343 121.6152 L 486.1988 123.3174 L 482.1628 124.5255 L 477.4267 127.326 L 475.697 126.8867 L 474.0085 128.2046 L 472.9377 129.9068 L 472.0317 128.3693 L 470.0549 129.193 L 467.8721 128.534 L 464.8245 129.0832 L 463.9597 128.6988 L 463.5067 126.9416 L 463.5478 122.5487 Z" fill="purpule" fill-opacity="1" stroke="#000000" stroke-width="0.41666665010982157" paint-order="fill" stroke-opacity="1" stroke-dasharray="" stroke-linecap="butt" stroke-linejoin="miter" stroke-miterlimit="10" transform="matrix(1.2000000476837158,0,0,1.2000000476837158,-85.00000762939453,-56.599998474121094)" clip-path="none"/>
<path d="M 449.2571 109.2052 L 449.3807 107.9971 L 447.8157 106.4596 L 446.4155 104.0984 L 449.8337 102.4511 L 455.8877 98.9917 L 462.9713 96.4657 L 463.4655 97.1796 L 461.6534 100.3645 L 460.5003 100.9685 L 459.7178 99.2113 L 457.2879 99.8702 L 455.7641 102.3962 L 458.9765 102.7806 L 458.2352 105.8556 L 456.9173 107.0637 L 453.3755 107.7775 L 452.0988 109.2601 L 449.2571 109.2052 Z" fill="Turquoise" fill-opacity="1" stroke="#000000" stroke-width="0.41666665010982157" paint-order="fill" stroke-opacity="1" stroke-dasharray="" stroke-linecap="butt" stroke-linejoin="miter" stroke-miterlimit="10" transform="matrix(1.2000000476837158,0,0,1.2000000476837158,-85.00000762939453,-56.599998474121094)" clip-path="none"/>
<path d="M 363.76 175.4833 L 362.7304 171.5846 L 360.3417 167.5212 L 359.5592 162.689 L 359.8887 157.7469 L 361.1654 153.1893 L 361.3713 149.7848 L 362.4421 145.2271 L 363.4717 143.0307 L 362.7716 139.5163 L 363.0187 136.9904 L 365.4485 130.0166 L 370.3493 130.1814 L 374.7972 127.8751 L 377.1446 127.1063 L 388.9232 126.5023 L 393.2474 125.0746 L 395.5125 128.5889 L 396.1303 131.1149 L 395.389 133.5859 L 398.6425 139.3516 L 398.6837 143.3052 L 399.7133 144.5682 L 402.7608 146.1057 L 404.7788 149.4004 L 404.4494 152.146 L 403.5845 154.6719 L 401.6489 157.088 L 400.7017 160.0532 L 398.9308 161.5358 L 398.3954 162.9635 L 398.1071 168.1801 L 397.4482 170.5413 L 394.9771 170.3766 L 386.411 166.6975 L 382.3338 165.5444 L 380.8924 165.9287 L 378.9979 167.6859 L 378.1742 172.0239 L 377.4741 173.8909 L 373.5617 173.6713 L 371.3789 172.5181 L 369.4433 172.8476 L 366.7664 174.9891 L 363.76 175.4833 Z" fill="gray" fill-opacity="1" stroke="#000000" stroke-width="0.41666665010982157" paint-order="fill" stroke-opacity="1" stroke-dasharray="" stroke-linecap="butt" stroke-linejoin="miter" stroke-miterlimit="10" transform="matrix(1.2000000476837158,0,0,1.2000000476837158,-85.00000762939453,-56.599998474121094)" clip-path="none"/>
<path d="M 359.9299 230.0104 L 360.4653 228.5827 L 359.6004 222.3228 L 359.5181 220.0165 L 361.2478 214.3607 L 362.8539 207.6066 L 365.2426 204.9708 L 368.8256 199.0404 L 367.0958 197.7225 L 363.101 196.0751 L 361.9891 193.8787 L 361.7832 189.0465 L 362.3597 186.9049 L 364.1718 182.512 L 363.76 175.4833 L 366.7664 174.9891 L 369.4433 172.8476 L 371.3789 172.5181 L 373.5617 173.6713 L 377.4741 173.8909 L 378.1742 172.0239 L 378.9979 167.6859 L 380.8924 165.9287 L 382.3338 165.5444 L 386.411 166.6975 L 394.9771 170.3766 L 397.4482 170.5413 L 401.443 176.0874 L 403.6669 175.7579 L 406.4262 177.2954 L 407.3734 179.3271 L 409.2267 179.9861 L 412.4802 181.9629 L 413.6745 184.3241 L 413.345 186.3009 L 411.6565 188.3875 L 409.0208 190.2545 L 408.0323 192.6706 L 405.8084 195.0318 L 404.7377 198.656 L 405.6849 199.7542 L 409.4326 200.9623 L 410.5034 201.8958 L 410.1739 205.6847 L 410.9564 210.9012 L 409.0619 212.274 L 404.5729 214.0861 L 403.0079 213.8665 L 398.6837 220.0165 L 400.331 221.9385 L 399.878 222.3777 L 387.5229 229.5711 L 385.0931 230.7243 L 382.375 231.1636 L 376.2386 234.5132 L 375.5797 236.5449 L 374.4677 236.2154 L 370.267 233.6346 L 364.7484 231.8225 L 362.4009 230.285 L 359.9299 230.0104 Z" fill="red" fill-opacity="1" stroke="#000000" stroke-width="0.41666665010982157" paint-order="fill" stroke-opacity="1" stroke-dasharray="" stroke-linecap="butt" stroke-linejoin="miter" stroke-miterlimit="10" transform="matrix(1.2000000476837158,0,0,1.2000000476837158,-85.00000762939453,-56.599998474121094)" clip-path="none"/>
<path d="M 448.6394 265.044 L 449.2571 271.249 L 450.6986 276.795 L 451.8929 279.1013 L 456.629 285.8554 L 457.8645 286.734 L 465.2776 293.9823 L 467.172 295.1354 L 471.9493 297.0573 L 470.7138 297.9359 L 467.5838 301.9994 L 462.5183 310.5107 L 457.4939 312.3227 L 451.6458 317.3197 L 444.4798 319.2965 L 441.6382 319.0768 L 438.5494 319.9554 L 435.3371 319.7907 L 432.5366 316.6058 L 429.7773 311.7736 L 425.7001 307.9847 L 425.6177 306.0628 L 427.4298 302.2739 L 426.7297 300.9011 L 424.2587 298.3203 L 422.3642 298.2105 L 420.3462 295.4649 L 416.5162 293.3234 L 413.8392 288.601 L 412.439 285.6358 L 410.9976 281.133 L 410.5857 278.3325 L 410.8328 273.2258 L 411.533 271.9079 L 415.4866 268.3386 L 411.7389 265.2087 L 410.9152 263.3417 L 415.0747 261.6944 L 421.7465 262.2984 L 425.6589 260.3765 L 427.8417 258.6193 L 430.8069 257.7956 L 432.2895 258.6742 L 433.525 260.5412 L 434.5958 261.914 L 436.7785 262.6279 L 440.0732 262.2435 L 444.6034 266.0324 L 446.6214 265.9225 L 446.8273 264.2203 L 448.6394 265.044 Z" fill="red" fill-opacity="1" stroke="#000000" stroke-width="0.41666665010982157" paint-order="fill" stroke-opacity="1" stroke-dasharray="" stroke-linecap="butt" stroke-linejoin="miter" stroke-miterlimit="10" transform="matrix(1.2000000476837158,0,0,1.2000000476837158,-85.00000762939453,-56.599998474121094)" clip-path="none"/>
<path d="M 425.6589 260.3765 L 421.7465 262.2984 L 415.0747 261.6944 L 410.9152 263.3417 L 404.1611 264.4399 L 402.4726 264.1105 L 398.8896 265.5382 L 398.1483 268.5034 L 396.9951 269.6016 L 391.8472 268.723 L 389.2526 269.6016 L 380.5217 270.3704 L 375.8268 269.6016 L 364.666 270.2605 L 363.5541 267.2953 L 361.3713 265.0989 L 354.9879 263.0671 L 353.2582 260.2117 L 351.8991 258.839 L 348.1926 256.3679 L 348.6044 254.6108 L 350.4165 252.4143 L 353.5464 251.7554 L 353.9995 251.1514 L 351.7755 248.6803 L 352.558 244.6169 L 351.9403 242.6401 L 355.235 240.0043 L 356.5528 237.5882 L 358.7768 235.7761 L 357.4589 233.6895 L 358.2414 231.8225 L 359.9299 230.0104 L 362.4009 230.285 L 364.7484 231.8225 L 370.267 233.6346 L 374.4677 236.2154 L 375.5797 236.5449 L 376.2386 234.5132 L 382.375 231.1636 L 385.0931 230.7243 L 387.5229 229.5711 L 395.6773 232.8658 L 400.5369 232.8658 L 405.7673 233.8542 L 409.5561 235.7212 L 411.7389 234.9525 L 412.0683 235.7761 L 410.9152 238.9061 L 411.3682 241.8713 L 413.0156 243.7932 L 415.1983 245.4955 L 418.4106 246.6486 L 420.7169 249.3942 L 424.7941 251.8103 L 425.8237 253.0183 L 425.6589 260.3765 Z" fill="red" fill-opacity="1" stroke="#000000" stroke-width="0.41666665010982157" paint-order="fill" stroke-opacity="1" stroke-dasharray="" stroke-linecap="butt" stroke-linejoin="miter" stroke-miterlimit="10" transform="matrix(1.2000000476837158,0,0,1.2000000476837158,-85.00000762939453,-56.599998474121094)" clip-path="none"/>
<path d="M 433.525 260.5412 L 432.2895 258.6742 L 430.8069 257.7956 L 427.8417 258.6193 L 425.6589 260.3765 L 425.8237 253.0183 L 424.7941 251.8103 L 420.7169 249.3942 L 418.4106 246.6486 L 415.1983 245.4955 L 413.0156 243.7932 L 411.3682 241.8713 L 410.9152 238.9061 L 412.0683 235.7761 L 411.7389 234.9525 L 409.5561 235.7212 L 405.7673 233.8542 L 400.5369 232.8658 L 395.6773 232.8658 L 387.5229 229.5711 L 399.878 222.3777 L 400.331 221.9385 L 398.6837 220.0165 L 403.0079 213.8665 L 404.5729 214.0861 L 409.0619 212.274 L 410.9564 210.9012 L 410.1739 205.6847 L 410.5034 201.8958 L 409.4326 200.9623 L 405.6849 199.7542 L 404.7377 198.656 L 405.8084 195.0318 L 408.0323 192.6706 L 409.0208 190.2545 L 411.6565 188.3875 L 413.345 186.3009 L 413.6745 184.3241 L 416.3103 183.5004 L 420.0168 183.8299 L 421.7877 186.4107 L 421.0464 191.3528 L 421.4994 192.5608 L 425.2883 196.0751 L 428.3771 196.5694 L 431.4658 199.864 L 432.8249 201.8958 L 435.1312 202.994 L 438.8377 203.6529 L 443.3267 205.0806 L 446.539 204.202 L 447.1156 204.861 L 448.9689 211.1209 L 450.2044 212.9879 L 446.3743 221.9385 L 440.6498 231.6578 L 439.0436 235.5565 L 438.9612 237.0391 L 439.7437 238.961 L 446.3331 239.8396 L 450.4103 241.9262 L 450.9457 242.9695 L 449.7102 246.429 L 447.3215 247.6919 L 445.8801 249.1745 L 443.5738 249.3942 L 439.4966 252.4143 L 435.0488 254.2813 L 433.6897 256.1483 L 435.8313 259.0586 L 435.7901 261.0354 L 433.525 260.5412 Z" fill="red" fill-opacity="1" stroke="#000000" stroke-width="0.41666665010982157" paint-order="fill" stroke-opacity="1" stroke-dasharray="" stroke-linecap="butt" stroke-linejoin="miter" stroke-miterlimit="10" transform="matrix(1.2000000476837158,0,0,1.2000000476837158,-85.00000762939453,-56.599998474121094)" clip-path="none"/>
<path d="M 397.9012 124.3608 L 401.9372 128.2595 L 403.1315 129.0832 L 407.8676 127.8202 L 412.0272 130.0716 L 413.0567 130.1265 L 414.9924 126.4474 L 416.5985 124.9099 L 420.9228 124.4157 L 423.1055 125.2393 L 425.5766 126.9965 L 430.4362 124.9648 L 433.4015 124.5804 L 434.3075 127.93 L 432.7425 131.1698 L 430.8069 133.3113 L 425.7413 136.4413 L 425.906 137.265 L 428.7477 139.6811 L 433.4426 141.1637 L 434.5134 142.6463 L 434.8841 145.1173 L 433.4426 147.9178 L 422.6937 157.088 L 421.6641 158.4059 L 422.0348 162.1399 L 421.3347 165.2149 L 422.4878 166.8622 L 422.4054 168.3998 L 420.1815 169.0587 L 418.1223 170.4315 L 415.8984 170.5413 L 412.3978 169.3882 L 411.1623 169.7726 L 411.1623 170.9806 L 417.8752 179.2722 L 420.0168 183.8299 L 416.3103 183.5004 L 413.6745 184.3241 L 412.4802 181.9629 L 409.2267 179.9861 L 407.3734 179.3271 L 406.4262 177.2954 L 403.6669 175.7579 L 401.443 176.0874 L 397.4482 170.5413 L 398.1071 168.1801 L 398.3954 162.9635 L 398.9308 161.5358 L 400.7017 160.0532 L 401.6489 157.088 L 403.5845 154.6719 L 404.4494 152.146 L 404.7788 149.4004 L 402.7608 146.1057 L 399.7133 144.5682 L 398.6837 143.3052 L 398.6425 139.3516 L 395.389 133.5859 L 396.1303 131.1149 L 395.5125 128.5889 L 393.2474 125.0746 L 396.295 124.0313 L 397.9012 124.3608 Z" fill="red" fill-opacity="1" stroke="#000000" stroke-width="0.41666665010982157" paint-order="fill" stroke-opacity="1" stroke-dasharray="" stroke-linecap="butt" stroke-linejoin="miter" stroke-miterlimit="10" transform="matrix(1.2000000476837158,0,0,1.2000000476837158,-85.00000762939453,-56.599998474121094)" clip-path="none"/>
<path d="M 497.895 178.2289 L 499.2129 180.9196 L 501.5191 181.5785 L 500.2013 182.8964 L 499.6659 186.1362 L 499.913 188.8268 L 499.2952 190.0898 L 499.6247 192.3412 L 502.6723 196.4595 L 505.6787 198.1618 L 505.6375 199.3698 L 503.2488 200.2484 L 502.3428 202.2252 L 500.8602 203.4882 L 499.5423 206.4534 L 498.5951 207.332 L 495.424 206.5083 L 493.9825 204.0922 L 492.2116 202.6096 L 491.4292 203.6529 L 489.3288 203.4882 L 487.7638 198.2716 L 486.0753 196.5144 L 484.7986 198.9855 L 483.2336 199.6993 L 478.7446 198.4363 L 476.6031 200.523 L 476.0265 202.5547 L 474.2144 204.0922 L 468.6958 206.8927 L 467.2956 207.0574 L 464.7834 205.5748 L 459.0177 204.6962 L 458.6882 200.7975 L 457.1232 198.1618 L 457.0408 193.9336 L 456.1348 191.5175 L 457.9057 186.4656 L 459.6766 183.7201 L 458.8941 180.6999 L 459.3883 179.437 L 462.5183 178.0093 L 462.3535 180.9196 L 465.154 183.171 L 466.719 182.7866 L 468.9429 183.2808 L 470.5079 186.3009 L 473.4319 187.6188 L 474.2968 187.509 L 475.3675 185.4772 L 476.6031 184.7634 L 477.3444 182.3473 L 483.1924 184.2143 L 486.6107 184.8732 L 489.37 184.7085 L 490.4407 182.6218 L 493.7766 179.8763 L 497.895 178.2289 Z" fill="red" fill-opacity="1" stroke="#000000" stroke-width="0.41666665010982157" paint-order="fill" stroke-opacity="1" stroke-dasharray="" stroke-linecap="butt" stroke-linejoin="miter" stroke-miterlimit="10" transform="matrix(1.2000000476837158,0,0,1.2000000476837158,-85.00000762939453,-56.599998474121094)" clip-path="none"/>
<path d="M 479.0329 168.0154 L 481.5451 164.5011 L 484.1808 165.6542 L 487.1461 164.556 L 489.0405 165.764 L 488.258 167.8507 L 489.1229 169.9373 L 495.7122 172.573 L 497.6891 172.3534 L 499.913 174.9891 L 498.0185 175.7579 L 497.895 178.2289 L 493.7766 179.8763 L 490.4407 182.6218 L 489.37 184.7085 L 486.6107 184.8732 L 483.1924 184.2143 L 477.3444 182.3473 L 474.9145 181.6883 L 474.2144 183.3357 L 472.4435 183.5004 L 471.2904 182.4571 L 471.661 180.9196 L 474.0085 179.3271 L 473.3495 177.8994 L 474.4615 176.7463 L 477.3444 175.8677 L 478.5387 174.9891 L 479.28 171.365 L 479.0329 168.0154 Z" fill="red" fill-opacity="1" stroke="#000000" stroke-width="0.41666665010982157" paint-order="fill" stroke-opacity="1" stroke-dasharray="" stroke-linecap="butt" stroke-linejoin="miter" stroke-miterlimit="10" transform="matrix(1.2000000476837158,0,0,1.2000000476837158,-85.00000762939453,-56.599998474121094)" clip-path="none"/>
<path d="M 462.5183 178.0093 L 459.3883 179.437 L 458.8941 180.6999 L 459.6766 183.7201 L 457.9057 186.4656 L 456.1348 191.5175 L 457.0408 193.9336 L 457.1232 198.1618 L 458.6882 200.7975 L 459.0177 204.6962 L 456.0936 205.7396 L 454.1168 207.6066 L 451.5222 210.6816 L 450.2044 212.9879 L 448.9689 211.1209 L 447.1156 204.861 L 446.539 204.202 L 443.3267 205.0806 L 438.8377 203.6529 L 435.1312 202.994 L 432.8249 201.8958 L 431.4658 199.864 L 428.3771 196.5694 L 425.2883 196.0751 L 421.4994 192.5608 L 421.0464 191.3528 L 421.7877 186.4107 L 420.0168 183.8299 L 417.8752 179.2722 L 411.1623 170.9806 L 411.1623 169.7726 L 412.3978 169.3882 L 415.8984 170.5413 L 418.1223 170.4315 L 420.1815 169.0587 L 422.4054 168.3998 L 422.4878 166.8622 L 421.3347 165.2149 L 422.0348 162.1399 L 421.6641 158.4059 L 422.6937 157.088 L 433.4426 147.9178 L 435.996 148.4669 L 442.1324 147.6981 L 444.1916 148.9062 L 446.1272 149.2357 L 449.0924 151.3223 L 450.0396 149.675 L 450.4515 146.9294 L 451.9753 147.149 L 454.1992 144.5682 L 457.1644 143.5249 L 455.5582 146.6548 L 455.5994 147.5334 L 458.3587 148.9611 L 459.5942 151.3772 L 458.6058 156.5389 L 457.6586 158.5706 L 455.3523 161.5907 L 455.1876 162.9635 L 460.9945 174.4949 L 462.5183 178.0093 Z" fill="red" fill-opacity="1" stroke="#000000" stroke-width="0.41666665010982157" paint-order="fill" stroke-opacity="1" stroke-dasharray="" stroke-linecap="butt" stroke-linejoin="miter" stroke-miterlimit="10" transform="matrix(1.2000000476837158,0,0,1.2000000476837158,-85.00000762939453,-56.599998474121094)" clip-path="none"/>
<path d="M 472.9377 129.9068 L 472.4435 130.6756 L 470.5902 138.1985 L 470.4667 144.678 L 470.755 146.7097 L 472.773 152.8598 L 474.7086 155.3857 L 475.9853 156.3742 L 477.3855 160.4376 L 481.5451 164.5011 L 479.0329 168.0154 L 479.28 171.365 L 478.5387 174.9891 L 477.3444 175.8677 L 474.4615 176.7463 L 473.3495 177.8994 L 474.0085 179.3271 L 471.661 180.9196 L 471.2904 182.4571 L 472.4435 183.5004 L 474.2144 183.3357 L 474.9145 181.6883 L 477.3444 182.3473 L 476.6031 184.7634 L 475.3675 185.4772 L 474.2968 187.509 L 473.4319 187.6188 L 470.5079 186.3009 L 468.9429 183.2808 L 466.719 182.7866 L 465.154 183.171 L 462.3535 180.9196 L 462.5183 178.0093 L 460.9945 174.4949 L 455.1876 162.9635 L 455.3523 161.5907 L 457.6586 158.5706 L 458.6058 156.5389 L 459.5942 151.3772 L 458.3587 148.9611 L 455.5994 147.5334 L 455.5582 146.6548 L 457.1644 143.5249 L 459.3471 142.3717 L 460.1708 140.2302 L 460.1296 138.0886 L 464.248 136.8806 L 463.7538 134.7939 L 464.7422 133.6957 L 464.8245 129.0832 L 467.8721 128.534 L 470.0549 129.193 L 472.0317 128.3693 L 472.9377 129.9068 Z" fill="yellow" fill-opacity="1" stroke="#000000" stroke-width="0.41666665010982157" paint-order="fill" stroke-opacity="1" stroke-dasharray="" stroke-linecap="butt" stroke-linejoin="miter" stroke-miterlimit="10" transform="matrix(1.2000000476837158,0,0,1.2000000476837158,-85.00000762939453,-56.599998474121094)" clip-path="none"/>
<path d="M 445.18 112.5548 L 446.2096 114.4218 L 447.6098 115.52 L 448.557 115.1905 L 451.9753 116.5084 L 458.0292 121.8897 L 459.4707 124.3059 L 461.4887 122.988 L 463.5478 122.5487 L 463.5067 126.9416 L 463.9597 128.6988 L 464.8245 129.0832 L 464.7422 133.6957 L 463.7538 134.7939 L 464.248 136.8806 L 460.1296 138.0886 L 460.1708 140.2302 L 459.3471 142.3717 L 457.1644 143.5249 L 454.1992 144.5682 L 451.9753 147.149 L 450.4515 146.9294 L 450.0396 149.675 L 449.0924 151.3223 L 446.1272 149.2357 L 444.1916 148.9062 L 442.1324 147.6981 L 435.996 148.4669 L 433.4426 147.9178 L 434.8841 145.1173 L 434.5134 142.6463 L 433.4426 141.1637 L 428.7477 139.6811 L 425.906 137.265 L 425.7413 136.4413 L 430.8069 133.3113 L 432.7425 131.1698 L 434.3075 127.93 L 433.4015 124.5804 L 434.0192 123.0978 L 436.655 119.1442 L 439.5378 116.6732 L 441.5146 115.6848 L 443.6562 111.7311 L 445.18 112.5548 Z" fill="blue" fill-opacity="1" stroke="#000000" stroke-width="0.41666665010982157" paint-order="fill" stroke-opacity="1" stroke-dasharray="" stroke-linecap="butt" stroke-linejoin="miter" stroke-miterlimit="10" transform="matrix(1.2000000476837158,0,0,1.2000000476837158,-85.00000762939453,-56.599998474121094)" clip-path="none"/>
<path d="M 362.7716 367.1793 L 362.1126 365.0377 L 361.0419 349.9371 L 360.3417 347.9603 L 350.3753 331.9261 L 349.2222 331.1574 L 347.0806 331.3221 L 345.0214 330.4435 L 339.3793 326.2702 L 333.1606 324.6778 L 331.8427 323.2501 L 331.1014 320.3398 L 331.1426 312.1031 L 341.9327 306.7767 L 373.6029 281.2978 L 376.3622 277.8383 L 380.5217 270.3704 L 389.2526 269.6016 L 391.8472 268.723 L 396.9951 269.6016 L 398.1483 268.5034 L 398.8896 265.5382 L 402.4726 264.1105 L 404.1611 264.4399 L 410.9152 263.3417 L 411.7389 265.2087 L 415.4866 268.3386 L 411.533 271.9079 L 410.8328 273.2258 L 410.5857 278.3325 L 410.9976 281.133 L 412.439 285.6358 L 413.8392 288.601 L 416.5162 293.3234 L 420.3462 295.4649 L 422.3642 298.2105 L 424.2587 298.3203 L 426.7297 300.9011 L 427.4298 302.2739 L 425.6177 306.0628 L 425.7001 307.9847 L 429.7773 311.7736 L 432.5366 316.6058 L 435.3371 319.7907 L 439.2907 323.7992 L 444.1916 324.8425 L 444.974 325.831 L 445.0152 330.4984 L 444.1092 333.1342 L 443.9033 334.6168 L 446.7038 337.1427 L 448.1864 339.2843 L 446.086 340.8767 L 446.3743 344.0067 L 447.1568 346.4777 L 445.0152 349.5527 L 444.9329 354.1104 L 447.0332 357.7894 L 446.992 358.8877 L 444.3975 357.8443 L 438.7965 353.3965 L 436.0372 350.4862 L 433.6486 349.9371 L 429.4066 350.8157 L 426.2355 353.3416 L 424.3822 354.2751 L 363.76 366.9047 L 362.7716 367.1793 Z" fill="yellow" fill-opacity="1" stroke="#000000" stroke-width="0.41666665010982157" paint-order="fill" stroke-opacity="1" stroke-dasharray="" stroke-linecap="butt" stroke-linejoin="miter" stroke-miterlimit="10" transform="matrix(1.2000000476837158,0,0,1.2000000476837158,-85.00000762939453,-56.599998474121094)" clip-path="none"/>
<path  id="IN-WB"  title="West Bengal"
 d="M 510.6207 382.4447 L 494.6827 390.5716 L 493.2824 392.1091 L 491.3056 397.0511 L 489.6171 398.8083 L 485.0045 401.8284 L 482.1217 400.84 L 480.9685 402.103 L 480.5979 407.0999 L 479.9389 409.1317 L 477.7974 411.2732 L 476.3148 414.3482 L 474.7086 415.8309 L 471.8669 417.0389 L 466.0189 417.0389 L 463.3419 419.2903 L 459.8825 425.6051 L 456.5878 429.394 L 455.7641 430.8766 L 455.3523 435.9834 L 459.3883 446.5264 L 461.0768 453.0059 L 462.7654 456.5203 L 462.8477 462.2311 L 464.2068 466.5691 L 463.4243 471.1816 L 460.212 478.0456 L 455.4759 483.6465 L 449.9984 492.8167 L 443.4503 501.4928 L 442.1324 502.2615 L 436.6961 503.0303 L 424.8764 509.4 L 399.6721 395.4038 L 398.3542 393.3721 L 370.5141 372.8901 L 364.1718 368.7168 L 362.7716 367.1793 L 363.76 366.9047 L 424.3822 354.2751 L 426.2355 353.3416 L 429.4066 350.8157 L 433.6486 349.9371 L 436.0372 350.4862 L 438.7965 353.3965 L 444.3975 357.8443 L 446.992 358.8877 L 447.0332 357.7894 L 444.9329 354.1104 L 445.0152 349.5527 L 447.1568 346.4777 L 446.3743 344.0067 L 446.086 340.8767 L 448.1864 339.2843 L 446.7038 337.1427 L 443.9033 334.6168 L 444.1092 333.1342 L 448.557 332.9694 L 452.6754 331.6516 L 455.3523 328.6864 L 459.6354 328.9609 L 465.8129 325.831 L 474.7498 321.6577 L 477.4267 321.7126 L 481.4215 321.1635 L 482.0805 321.8224 L 481.298 323.5247 L 480.0625 324.3483 L 482.4511 326.1055 L 485.9517 326.5997 L 500.2836 333.1342 L 501.1485 334.0677 L 501.8898 336.978 L 502.7546 338.2409 L 506.9142 341.4258 L 507.326 342.9633 L 506.1729 347.7955 L 506.4612 353.122 L 506.2141 356.801 L 520.0518 367.8931 L 523.2229 368.003 L 522.6051 369.9249 L 520.7519 371.2977 L 517.5396 372.7254 L 513.8742 376.02 L 510.6207 382.4447 Z" fill="green" fill-opacity="1" stroke="#000000" stroke-width="0.41666665010982157" paint-order="fill" stroke-opacity="1" stroke-dasharray="" stroke-linecap="butt" stroke-linejoin="miter" stroke-miterlimit="10" transform="matrix(1.2000000476837158,0,0,1.2000000476837158,-85.00000762939453,-56.599998474121094)" clip-path="none"/><defs><filter id="f1" x="-100%" y="-100%" width="1000%" height="1000%"><feOffset result="offOut" in="SourceGraphic" dx="-1.4" dy="1.4"></feOffset><feColorMatrix result="matrixOut" in="offOut" type="matrix" values="0.2 0 0 0 0 0 0.2 0 0 0 0 0 0.2 0 0 0 0 0 1 0"></feColorMatrix><feGaussianBlur result="blurOut" in="matrixOut" stdDeviation="8"></feGaussianBlur><feBlend in="SourceGraphic" in2="blurOut" mode="normal"></feBlend></filter></defs>
<text transform="matrix(1 0 0 1 466.5369 218.249)" style="font-family:'Tahoma'; font-size:10px;" class="maplabels1">Sfax</text>
<text transform="matrix(1 0 0 1 472.8735 325.024)" style="font-family:'Tahoma'; font-size:10px;" class="maplabels1">Mdenine</text>
<text transform="matrix(1 0 0 1 312.1226 281.7179)" style="font-family:'Tahoma'; font-size:10px;" class="maplabels1">Tozeur</text>
<text transform="matrix(0.7096 -0.7046 0.7046 0.7096 466.5373 53.1162)" style="font-family:'Tahoma'; font-size:8px;" class="maplabels1">Manubah</text>
<text transform="matrix(1 0 0 1 405.141 83.5554)" style="font-family:'Tahoma'; font-size:10px;" class="maplabels1">Bja</text>
<text transform="matrix(0.7317 -0.6816 0.6816 0.7317 472.8744 69.528)" style="font-family:'Tahoma'; font-size:8px;" class="maplabels1">Ben Arous</text>
<text transform="matrix(1 0 0 1 411.7488 49.0978)" style="font-family:'Tahoma'; font-size:10px;" class="maplabels1">Bizerte</text>
<text transform="matrix(1 0 0 1 350.7253 89.2487)" style="font-family:'Tahoma'; font-size:10px;" class="maplabels1">Jendouba</text>
<text transform="matrix(0.7635 -0.6458 0.6458 0.7635 485.311 84.0902)" style="font-family:'Tahoma'; font-size:10px;" class="maplabels1">Nabeul</text>
<text transform="matrix(0.7619 -0.6477 0.6477 0.7619 472.8733 59.2635)" style="font-family:'Tahoma'; font-size:8px;" class="maplabels1">Tunis</text>
<text transform="matrix(1 0 0 1 355.5133 123.9534)" style="font-family:'Tahoma'; font-size:10px;" class="maplabels1">Le Kef</text>
<text transform="matrix(1 0 0 1 355.5132 196.5513)" style="font-family:'Tahoma'; font-size:10px;" class="maplabels1">Kassrine</text>
<text transform="matrix(1 0 0 1 426.8904 296.0416)" style="font-family:'Tahoma'; font-size:10px;" class="maplabels1">Gabs</text>
<text transform="matrix(1 0 0 1 363.1965 247.6521)" style="font-family:'Tahoma'; font-size:10px;" class="maplabels1">Gafsa</text>
<text transform="matrix(1 0 0 1 393.3299 218.2488)" style="font-family:'Tahoma'; font-size:9px;" class="maplabels1">Sidi Bou Zid</text>
<text transform="matrix(1 0 0 1 400.6916 120.7391)" style="font-family:'Tahoma'; font-size:10px;" class="maplabels1">Siliana</text>
<text transform="matrix(1 0 0 1 474.7083 174.9133)" style="font-family:'Tahoma'; font-size:10px;" class="maplabels1">Mahdia</text>
<text transform="matrix(1 0 0 1 505.8024 146.8665)" style="font-family:'Tahoma'; font-size:10px;" class="maplabels1">Monastir</text>
<text transform="matrix(1 0 0 1 420.9292 157.5858)" style="font-family:'Tahoma'; font-size:10px;" class="maplabels1">Kairouan</text>
<text transform="matrix(1 0 0 1 487.3476 128.64)" style="font-family:'Tahoma'; font-size:10px;" class="maplabels1">Sousse</text>
<text transform="matrix(0.9059 -0.4236 0.4236 0.9059 436.8822 115.834)" style="font-family:'Tahoma'; font-size:9px;" class="maplabels1">Zaghouan</text>
<text transform="matrix(1 0 0 1 367.2062 322.281)" style="font-family:'Tahoma'; font-size:10px;" class="maplabels1">Kebili</text>
<text transform="matrix(1 0 0 1 418.1561 442.5186)" style="font-family:'Tahoma'; font-size:10px;" class="maplabels1">Tataouine</text>
</svg>